<svg width="24" height="24" viewBox="0 0 24 24" fill="none" xmlns="http://www.w3.org/2000/svg">
<path d="M20.4 1.20001H3.59995C2.27995 1.20001 1.19995 2.28001 1.19995 3.60001V20.4C1.19995 21.7212 2.27995 22.8 3.59995 22.8H20.4C21.72 22.8 22.8 21.7212 22.8 20.4V3.60001C22.8 2.28001 21.72 1.20001 20.4 1.20001ZM11.9808 18.6276C13.7434 18.6273 15.4337 17.9269 16.68 16.6804C17.9262 15.4339 18.6264 13.7434 18.6264 11.9808C18.6264 11.5752 18.5748 11.184 18.5028 10.8H20.4V19.4592C20.4 19.5683 20.3784 19.6762 20.3366 19.7769C20.2947 19.8776 20.2334 19.969 20.1562 20.046C20.0789 20.1229 19.9872 20.1838 19.8863 20.2252C19.7854 20.2666 19.6774 20.2877 19.5684 20.2872H4.43155C4.32251 20.2877 4.21446 20.2666 4.11358 20.2252C4.01271 20.1838 3.92101 20.1229 3.84374 20.046C3.76647 19.969 3.70516 19.8776 3.66332 19.7769C3.62149 19.6762 3.59995 19.5683 3.59995 19.4592V10.8H5.45875C5.38555 11.184 5.33395 11.5752 5.33395 11.9808C5.33427 13.7436 6.03466 15.434 7.28111 16.6805C8.52755 17.9269 10.218 18.6273 11.9808 18.6276ZM7.82755 11.9808C7.82755 11.4354 7.93498 10.8953 8.14369 10.3915C8.35241 9.88756 8.65834 9.42972 9.044 9.04406C9.42966 8.6584 9.8875 8.35247 10.3914 8.14376C10.8953 7.93504 11.4353 7.82761 11.9808 7.82761C12.5262 7.82761 13.0662 7.93504 13.5701 8.14376C14.074 8.35247 14.5318 8.6584 14.9175 9.04406C15.3032 9.42972 15.6091 9.88756 15.8178 10.3915C16.0265 10.8953 16.134 11.4354 16.134 11.9808C16.134 13.0823 15.6964 14.1387 14.9175 14.9176C14.1386 15.6964 13.0822 16.134 11.9808 16.134C10.8793 16.134 9.82287 15.6964 9.044 14.9176C8.26512 14.1387 7.82755 13.0823 7.82755 11.9808ZM19.5684 7.20001H17.6304C17.4103 7.19938 17.1995 7.11169 17.0439 6.95609C16.8883 6.8005 16.8006 6.58965 16.8 6.36961V4.42921C16.8 3.97081 17.172 3.60001 17.6292 3.60001H19.5672C20.028 3.60001 20.4 3.97081 20.4 4.42921V6.36841C20.4 6.82561 20.028 7.20001 19.5684 7.20001Z" fill="black"/>
</svg>
